<?xml version="1.0" encoding="iso-8859-1"?>
<!-- Generator: Adobe Illustrator 19.0.0, SVG Export Plug-In . SVG Version: 6.00 Build 0)  -->

<svg xmlns="http://www.w3.org/2000/svg" viewBox="0 0 512.001 512.001"><path d="M284.286 256.002L506.143 34.144c7.81-7.81 7.81-20.475 0-28.285s-20.475-7.81-28.285 0L256 227.717 34.143 5.86c-7.81-7.81-20.475-7.81-28.285 0s-7.81 20.475 0 28.285L227.715 256 5.858 477.86c-7.81 7.81-7.81 20.475 0 28.285C9.763 510.05 14.882 512 20 512a19.94 19.94 0 0 0 14.143-5.857L256 284.287l221.857 221.857C481.762 510.05 486.88 512 492 512a19.94 19.94 0 0 0 14.143-5.857c7.81-7.81 7.81-20.475 0-28.285L284.286 256.002z" /></svg>